# xmcd
#
# Track frame offsets:
#	150
#	13400
#	28347
#	39631
#	50027
#	67640
#	79902
#	92450
#	116541
#	137727
#
# Disc length: 2125 seconds
#
# Revision: 0
# Processed by: cddbd v1.5.2PL0 Copyright (c) Steve Scherf et al.
# Submitted via: audiograbber 1.83.01
#
DISCID=83084b0a
DTITLE=Various Artist - Forever Soul R&B [Disc 2]
DYEAR=2008
DGENRE=R&B
TTITLE0=When A Man Loves A Woman - Percy Sledge
TTITLE1=Tracks of My Tears - The Miracles
TTITLE2=Slip Away - Clarence Carter
TTITLE3=Pap's Got a Brand New Bag (Live) - James Brown
TTITLE4=I Heard It Through the Grapevine (Live) - Marvin Gaye
TTITLE5=I Second That Emotion - The Miracles
TTITLE6=My Guy - Mary Wells
TTITLE7=I Say a Little Prayer (Live) - Dionne Warwick
TTITLE8=Got To Give It Up (Live) - Marvin Gaye
TTITLE9=Always and Forever - Heatwave
EXTD=
EXTT0=
EXTT1=
EXTT2=
EXTT3=
EXTT4=
EXTT5=
EXTT6=
EXTT7=
EXTT8=
EXTT9=
PLAYORDER=
